<svg id="Layer_1" data-name="Layer 1" xmlns="http://www.w3.org/2000/svg" viewBox="0 0 162.68 187.98"><defs><style>.cls-1{fill:#231f20;}</style></defs><path class="cls-1" d="M255.42,426.21c-6.12,1.63-3,1.28-6.47,6.32l-6.17,9c-2.28,3.3-4.58,6.66-5.74,10.45-1.54,5-1,10.34-.35,15.51.28,2.33.66,4.85,2.44,6.47,1.06,1,2.68,1.79,2.59,3.18s-1.73,2-3.12,2.24a24.58,24.58,0,0,1-8.34,0,3.5,3.5,0,0,1-2.44-1.18,3.14,3.14,0,0,1-.41-1.63,35.67,35.67,0,0,1,.64-9.22c.69-3.41,1.87-6.71,2.44-10.14a28.65,28.65,0,0,0-.16-10.28l-.08.56A25.32,25.32,0,0,0,234.56,435c.59-9.49-4.3-19.05-2-28.3.72-2.9,2.14-5.64,2.59-8.6s0-5.9,1.23-8.52c1.06-2.2,3.33-4.19,2.85-6.57-.26-1.29,0-2.6-.83-3.63a20.41,20.41,0,0,1-2.79-22.05c3.52-7.13,9.79-12.66,16.15-17.72,2.19-1.73,5.33-3.49,7.65-1.92a54.92,54.92,0,0,1-9,14.26,17.69,17.69,0,0,0-3.32,4.57c-1.9,4.57,1.1,9.53,4,13.61l1.26.43a134.47,134.47,0,0,1,36,2.85c2.73.59,5.57,1.27,8.28.62,2.22-.54,4.35-2,6.6-1.53,1,.19,2.11.77,3.06.35a3.56,3.56,0,0,0,1.23-1.15,9.17,9.17,0,0,1,7.33-3.15,4.26,4.26,0,0,0,2.69-.33,3.38,3.38,0,0,0,1-1.91,14.55,14.55,0,0,1,7.9-8.79,3.92,3.92,0,0,0,2-1.41,4.07,4.07,0,0,0,.12-2.25c-.28-3.31,1.92-6.49,1.51-9.78-.31-2.48-2-4.55-3.46-6.65A30.7,30.7,0,0,1,321.65,316a5,5,0,0,1,1.27-3.05,4.15,4.15,0,0,1,4.18-.47,13.29,13.29,0,0,1,3.59,2.45c3.9,3.25,7.77,7.28,12.7,8.86s10.62-1,15.81-1.11c7.5-.11,12.43-9.48,17-15.76,1.26-1.71,3.58-3.6,5.32-2.32a3.63,3.63,0,0,1,1,1.43c3.84,8,2.44,18,0,25.49-.93,2.93-3.13,5.45-3.72,8.46a23.76,23.76,0,0,0,.28,10.07c1.42,5.85-4.57,10.79-5.39,17.93l.2-.29c2.6,1.87,2.38,5.57,1.91,8.63l-1.29,8.34a28.42,28.42,0,0,1-1,4.64c-1,3-2.95,5.55-4.07,8.46-2.12,5.53-1.1,11.85-3.55,17.26-1.79,4-5.25,7-7.68,10.63-1.74,2.6-2.94,5.48-4.5,8.18-2.58,4.47-6.12,8.36-9.29,12.48a12.54,12.54,0,0,0-2.26,3.9,12,12,0,0,0-.28,4q.22,4.28.79,8.54c.63,4.73,1.81,9.81,5.64,12.89,3.14,2.53,7.6,3.28,10.56,6,1.32,1.22,2.23,3.38,1,4.65-.87.87-2.3.87-3.57.8l-14.53-.78c-2-.11-4.62-.6-5.07-2.51-.28-1.18.37-2.68-.59-3.48a2.89,2.89,0,0,0-1.78-.44l-6.43-.13a6.61,6.61,0,0,1-4.12-1c-1.85-1.51-1.28-4.3-.55-6.51l3.87-11.69.5,1.68c-3.11-9.38-4.45-19.25-6.94-28.8-5.47,1.14-11.15.72-16.72.3l-9-.69c-5.61-.43-11.4-.9-16.38-3.37-1.7-.85-3.33-1.93-5.23-2.21.3,3.41-1.34,6.69-3.26,9.59s-4.17,5.67-5.31,8.91c-1.56,4.4-.91,9.19-.25,13.78.3,2.11.71,4.42,2.38,5.84a11.87,11.87,0,0,0,3.42,1.69,6.43,6.43,0,0,1,3.09,2.11,2.36,2.36,0,0,1-.49,3.28,4.16,4.16,0,0,1-2.17.35l-7.92-.21a5.4,5.4,0,0,1-3-.67,4.83,4.83,0,0,1-1.53-3.13L255,453a16.62,16.62,0,0,1-.46-3.56c0-3,1.73-5.77,2.65-8.67a17.85,17.85,0,0,0-1.81-14.59Z" transform="translate(-224.79 -301.71)"/><path class="cls-1" d="M254.76,423.8c-2,.54-4.47,1-5.67,2.94a11.73,11.73,0,0,0-.86,2.07c.17-.44,0-.06-.08.15l-.33.66a21.41,21.41,0,0,1-1.17,1.86c-2.38,3.48-4.81,6.93-7.17,10.42a33.59,33.59,0,0,0-5.16,10.5,35.52,35.52,0,0,0-.49,11.86c.35,3.57.46,7.69,2.79,10.62a9.37,9.37,0,0,0,1.54,1.48c.24.19.66.7.93.78s.07.05.17-.39.47-.33,0-.18c-.19.06-.43.17-.65.23a13.6,13.6,0,0,1-2.76.39,19,19,0,0,1-5.43-.31,1.79,1.79,0,0,1-.6-.17c.27.16.09.39.11-.12,0-1-.08-2-.06-3,.12-4.55,1.48-8.75,2.53-13.13a33.48,33.48,0,0,0,.36-14.16c-.45-2.34-4.46-2.43-4.82,0l-.09.55c-.41,2.73,2.92,4.41,4.57,1.93a28.22,28.22,0,0,0,4.52-12.3c.54-4.39-.19-8.81-1-13.12s-1.68-8.34-1.46-12.6,2.54-8.16,3.15-12.44c.29-2.07.09-4.23.55-6.27.41-1.83,1.67-3.16,2.56-4.77,1.08-2,1-3.66.84-5.83a6.87,6.87,0,0,0-.79-3c-.48-.82-1.2-1.52-1.72-2.33a18.31,18.31,0,0,1-3-10,19.13,19.13,0,0,1,3.2-10.19,47,47,0,0,1,8.91-10.07c1.73-1.54,3.5-3.07,5.35-4.46,1.14-.85,3.17-2.41,4.62-1.53l-.9-3.42a53.53,53.53,0,0,1-8.61,13.75c-1.75,2-3.59,4-4.29,6.66a12.58,12.58,0,0,0,.77,7.93,26.13,26.13,0,0,0,1.86,3.7c.71,1.19,1.61,3.11,2.83,3.82,2.05,1.2,4.62.65,6.86.6a134.59,134.59,0,0,1,17.84.77c3,.32,5.93.77,8.88,1.31s5.85,1.32,8.83,1.68a14.68,14.68,0,0,0,4.34-.08,27.86,27.86,0,0,0,4-1.26,4.8,4.8,0,0,1,3.15-.09,4.93,4.93,0,0,0,4.62-.77c.75-.63,1.26-1.49,2.06-2.08a6.93,6.93,0,0,1,3.2-1.3c1.18-.15,2.34.14,3.51-.07a4.44,4.44,0,0,0,3.35-2.68c.43-1,.65-2,1.14-2.93a11.83,11.83,0,0,1,1.81-2.63,12,12,0,0,1,2.32-2c1-.68,2.24-1.07,3.27-1.75a4.6,4.6,0,0,0,2.15-3.62,22.14,22.14,0,0,1,.08-3.73c.59-2.64,1.65-5.15,1.29-7.91s-1.82-4.78-3.3-6.92a30,30,0,0,1-3.64-6.9,28.69,28.69,0,0,1-1.63-7.37,30,30,0,0,1,0-3.79,10.57,10.57,0,0,1,.49-3.54c.76-1.71,3.45.59,4.24,1.25,1.95,1.63,3.81,3.35,5.79,4.94,4.18,3.34,8.73,5.84,14.25,5.32,2.8-.26,5.51-1,8.29-1.36,2.19-.29,4.32-.16,6.42-1,4.11-1.67,7.06-5.08,9.67-8.55,1.33-1.78,2.56-3.63,3.82-5.45a27.35,27.35,0,0,1,1.6-2.23,6,6,0,0,1,1.15-1.1c.13-.09.28-.15.41-.25.55-.43.14.34,0-.19.23.76.83,1.58,1.11,2.38a25.6,25.6,0,0,1,1,3.73,30.09,30.09,0,0,1,.3,7.28,34.07,34.07,0,0,1-3.52,13.78,21.13,21.13,0,0,0-2.68,7.6,26.55,26.55,0,0,0,.48,8.93c.81,3.69-1.69,7.14-3.28,10.63A24.36,24.36,0,0,0,371.3,368a2.49,2.49,0,0,0,1.84,2.41,2.57,2.57,0,0,0,2.82-1.15l.2-.29-3.43.9c1.49,1.15,1,4.18.77,5.8-.51,3.56-1,7.16-1.69,10.69-.67,3.32-2.52,5.95-3.91,9a30.56,30.56,0,0,0-2.34,9.6c-.34,3.08-.52,6.36-1.89,9.2-1.28,2.67-3.3,4.84-5.15,7.12a49,49,0,0,0-5.39,8.59,53.11,53.11,0,0,1-5.21,8.23c-2.07,2.68-4.34,5.22-6.29,8-2.11,3-2.28,6.09-2.05,9.63.38,6,.74,13,4,18.24a15.87,15.87,0,0,0,6.63,5.81c2.32,1.14,5.47,2,7.22,4,.26.29.35.69.57,1,.43.54-.28-.07.12-.09a36.65,36.65,0,0,1-4.19-.06l-11.14-.59a9.08,9.08,0,0,1-3.39-.55c-.36-.18-.23,0-.22-.53a8.75,8.75,0,0,0-.13-2.34c-.59-2.21-2.58-3-4.67-3.07s-4-.07-5.94-.12c-.9,0-2.82.17-3.25-.73s.11-2.36.4-3.3c1.25-4,2.65-8,4-12h-4.82l.5,1.68,4.82-1.33c-3.08-9.41-4.47-19.24-6.94-28.8a2.56,2.56,0,0,0-3.08-1.75,48.06,48.06,0,0,1-12.22.48c-4.13-.25-8.26-.61-12.4-.92a63.66,63.66,0,0,1-11.26-1.52,23.68,23.68,0,0,1-5.06-1.93,18.2,18.2,0,0,0-5.09-2.08c-1.49-.27-3.28.66-3.17,2.41.23,3.55-1.71,6.59-3.65,9.41-2.13,3.11-4.37,6.2-5.28,9.93a31,31,0,0,0-.1,11.48c.43,3.24.76,7,3.48,9.18a17.82,17.82,0,0,0,4.48,2.27,6.5,6.5,0,0,1,1.49.92c.18.15.13.2.09.21s.25-.43.27-.36a54.32,54.32,0,0,0-5.57-.12l-3-.07c-.44,0-1.38.11-1.76-.18s-.45-1-.54-1.45c-.23-1-.41-2-.62-3l-1.24-6.08-1.24-6.08a13.64,13.64,0,0,1-.52-5.15,38.11,38.11,0,0,1,2.1-5.94,20.27,20.27,0,0,0-1.7-17.54c-1.65-2.76-6-.25-4.32,2.52a15.67,15.67,0,0,1,2.15,10.14c-.53,3.84-2.87,7.12-3.27,11a21.64,21.64,0,0,0,.79,6.54l1.34,6.57,1.34,6.56c.38,1.87.67,3.91,2.07,5.34s3.61,1.72,5.67,1.77l6.68.18c2.08.05,4.25-.08,5.53-2a5,5,0,0,0,.11-5.26,8.81,8.81,0,0,0-4.67-3.4c-1.28-.51-2.61-.91-3.23-2.24a16.84,16.84,0,0,1-1-4.88,40,40,0,0,1-.43-6.08,14.81,14.81,0,0,1,1.27-6A39.13,39.13,0,0,1,271,440.2c2.6-3.75,5.14-7.91,4.83-12.66L272.7,430c1.85.33,3.35,1.36,5,2.15a29.4,29.4,0,0,0,5.56,2,73.08,73.08,0,0,0,12.16,1.59c8.58.65,17.43,2,25.95.26l-3.07-1.75c2.47,9.57,3.86,19.4,6.94,28.81,1,3,5.75,1.77,4.82-1.33l-.5-1.68a2.52,2.52,0,0,0-4.82,0c-1.29,3.89-2.62,7.78-3.87,11.68-.92,2.87-1.4,6.38.94,8.72,2.63,2.64,7.21,2,10.59,2a23.62,23.62,0,0,0,2.45.07l-.62-.63c-.08-.12-.09,0,0,.31a3.31,3.31,0,0,0,0,.7,5.18,5.18,0,0,0,2.21,4.53c2.58,1.82,6.31,1.54,9.31,1.7,3.77.2,7.58.57,11.36.6a6.34,6.34,0,0,0,4.63-1.56,4.89,4.89,0,0,0,1.13-4.78c-.9-3.2-3.93-5.07-6.76-6.4-2.65-1.25-5.66-2.25-7.54-4.64s-2.52-5.19-3-8a75.89,75.89,0,0,1-1.06-10.53,7.13,7.13,0,0,1,.8-4.19,36.78,36.78,0,0,1,3.25-4.33,104.23,104.23,0,0,0,6.54-8.68c1.92-3,3.24-6.32,5.17-9.32,1.8-2.78,4.17-5.14,6.08-7.85A21.65,21.65,0,0,0,370,409.9c.57-3.81.56-7.84,2-11.46s3.87-6.79,4.67-10.76c.85-4.21,1.54-8.6,2-12.87.36-3.6-.38-7-3.35-9.27-1.12-.86-2.74-.1-3.42.9l-.2.29L376.3,368c.49-3.82,2.84-7.13,4.31-10.6a14.47,14.47,0,0,0,1.3-5.47c0-2.32-.83-4.55-.9-6.88a14.46,14.46,0,0,1,1.05-6.61,54.9,54.9,0,0,0,3-6.24A48.48,48.48,0,0,0,387.45,319a30.26,30.26,0,0,0-2.53-13.8c-1.06-2.31-3.09-3.9-5.74-3.33-2.29.49-4,2.3-5.29,4.11-2.23,3-4.17,6.29-6.63,9.16-2.07,2.41-4.75,4.91-7.75,5.09a54.25,54.25,0,0,0-7.07.91,23.42,23.42,0,0,1-6.67.67c-4.17-.42-7.74-3.76-10.75-6.39-3.27-2.85-7.36-7.2-12.15-5.25-2.4,1-3.35,3.23-3.69,5.64a31.6,31.6,0,0,0-.19,7.4,33.74,33.74,0,0,0,4.31,13.68c1.16,2,2.74,3.79,3.75,5.88.94,1.93.38,3.79-.17,5.75a22,22,0,0,0-.75,3.38,9.52,9.52,0,0,0-.11,1.77,5.26,5.26,0,0,0,.13,1.44c-.22-.39.68-.46,0-.21-.22.09-.45.23-.66.33-.45.21-.91.41-1.34.65a17.92,17.92,0,0,0-3,2.08,16.34,16.34,0,0,0-3.93,4.93,18.42,18.42,0,0,0-1.2,3c-.35,1.08,0,.22,0,.29a6.32,6.32,0,0,0-1.65-.07,11.78,11.78,0,0,0-6.58,2,12.31,12.31,0,0,0-2.35,2.15c-.06.06-.45.52-.46.51l.24-.11c.28-.07.32-.11.14-.1a6.56,6.56,0,0,0-1.77-.44c-2.67-.47-4.82.75-7.31,1.45s-5,0-7.36-.51a137.64,137.64,0,0,0-32.06-3.12c-1.28,0-2.59,0-3.86.14-.6.07,0,.12-.18.09a2.58,2.58,0,0,1-.39-.14c-.25-.07-.5-.16-.74-.25l1.49,1.15c-1.68-2.4-3.42-4.93-4.07-7.83-.62-2.75.75-4.74,2.48-6.71a59.33,59.33,0,0,0,9.93-15.38,2.57,2.57,0,0,0-.9-3.42c-4.29-2.59-8.7.71-12,3.37a75.8,75.8,0,0,0-9.38,8.71,35.77,35.77,0,0,0-6.86,10.81,22.95,22.95,0,0,0,.91,17.71,21.32,21.32,0,0,0,1.29,2.34,28.36,28.36,0,0,1,1.83,2.49,7.73,7.73,0,0,1,.32,2.52,3.5,3.5,0,0,1-.66,1.78c-1.14,1.86-2.38,3.51-2.83,5.69s-.29,4.33-.56,6.49a36.26,36.26,0,0,1-2,6.66,29.6,29.6,0,0,0-.82,13.62c.67,4.89,2,9.7,2.18,14.65a23.36,23.36,0,0,1-4,13.9l4.57,1.93.08-.55h-4.82a28.19,28.19,0,0,1-.53,12.19c-1,4.19-2.24,8.27-2.49,12.61a17.82,17.82,0,0,0,.29,6,5.24,5.24,0,0,0,4.41,3.38,25.93,25.93,0,0,0,6.46.36,13.36,13.36,0,0,0,5.71-1.29,4.43,4.43,0,0,0,2.32-4.88c-.47-1.82-1.91-2.64-3.19-3.83a6.64,6.64,0,0,1-1.63-4.06c-.28-1.89-.46-3.8-.59-5.7-.28-4-.15-8,1.45-11.66s4.18-7.08,6.49-10.43,4.95-6.47,6.43-10.18c.11-.28.54-1.4.2-.59a2.17,2.17,0,0,1,.19-.33c-.08.13-.18.3-.23.27s-.19.28,0,.05c0-.05.2-.11.26-.14s.41-.14-.11.05l.4-.15c.79-.23,1.57-.47,2.37-.68C259.19,427.79,257.87,423,254.76,423.8Z" transform="translate(-224.79 -301.71)"/></svg>